<?xml version="1.0" encoding="UTF-8" standalone="no"?>
<!-- Created with Inkscape (http://www.inkscape.org/) -->

<svg
   xmlns:dc="http://purl.org/dc/elements/1.1/"
   xmlns:cc="http://creativecommons.org/ns#"
   xmlns:rdf="http://www.w3.org/1999/02/22-rdf-syntax-ns#"
   xmlns:svg="http://www.w3.org/2000/svg"
   xmlns="http://www.w3.org/2000/svg"
   xmlns:sodipodi="http://sodipodi.sourceforge.net/DTD/sodipodi-0.dtd"
   xmlns:inkscape="http://www.inkscape.org/namespaces/inkscape"
   width="1702"
   height="630"
   viewBox="0 0 1702 630.00002"
   id="svg2"
   version="1.1"
   inkscape:version="0.91 r13725"
   sodipodi:docname="hackerbar_facebook.svg"
   inkscape:export-filename="/home/luiz/org/ghc/image/inkscape/hackerbar_facebook.png"
   inkscape:export-xdpi="90"
   inkscape:export-ydpi="90">
  <defs
     id="defs4" />
  <sodipodi:namedview
     id="base"
     pagecolor="#ffffff"
     bordercolor="#666666"
     borderopacity="1.0"
     inkscape:pageopacity="0.0"
     inkscape:pageshadow="2"
     inkscape:zoom="0.70710678"
     inkscape:cx="920.96994"
     inkscape:cy="137.30643"
     inkscape:document-units="px"
     inkscape:current-layer="layer1"
     showgrid="false"
     units="px"
     inkscape:window-width="1855"
     inkscape:window-height="1056"
     inkscape:window-x="65"
     inkscape:window-y="24"
     inkscape:window-maximized="1"
     showguides="true"
     inkscape:guide-bbox="true">
    <sodipodi:guide
       position="1592.758,270.46835"
       orientation="0,1"
       id="guide4277" />
    <sodipodi:guide
       position="57.982756,212.13204"
       orientation="1,0"
       id="guide4281" />
    <sodipodi:guide
       position="-212,359.00001"
       orientation="1,0"
       id="guide4283" />
    <sodipodi:guide
       position="1644.0233,290.97445"
       orientation="1,0"
       id="guide4285" />
    <sodipodi:guide
       position="1574.7268,181.72645"
       orientation="0,1"
       id="guide4289" />
    <sodipodi:guide
       position="1621.0423,376.88793"
       orientation="0,1"
       id="guide4291" />
    <sodipodi:guide
       position="1578.5,46.500002"
       orientation="0,1"
       id="guide5426" />
    <sodipodi:guide
       position="1612.9106,64.169943"
       orientation="0,1"
       id="guide5428" />
    <sodipodi:guide
       position="1245.215,534.57274"
       orientation="1,0"
       id="guide4187" />
  </sodipodi:namedview>
  <metadata
     id="metadata7">
    <rdf:RDF>
      <cc:Work
         rdf:about="">
        <dc:format>image/svg+xml</dc:format>
        <dc:type
           rdf:resource="http://purl.org/dc/dcmitype/StillImage" />
        <dc:title></dc:title>
      </cc:Work>
    </rdf:RDF>
  </metadata>
  <g
     inkscape:label="Layer 1"
     inkscape:groupmode="layer"
     id="layer1"
     transform="translate(0,-422.36212)">
    <rect
       style="fill:#039935;fill-opacity:1;fill-rule:evenodd;stroke:#000000;stroke-width:10.10594559;stroke-linecap:butt;stroke-linejoin:miter;stroke-miterlimit:4;stroke-dasharray:none;stroke-opacity:1"
       id="rect4305"
       width="1691.894"
       height="619.89404"
       x="5.0529728"
       y="427.4151" />
    <flowRoot
       xml:space="preserve"
       id="flowRoot5011"
       style="font-style:normal;font-variant:normal;font-weight:normal;font-stretch:normal;font-size:40px;line-height:125%;font-family:'Source Code Pro for Powerline';-inkscape-font-specification:'Source Code Pro for Powerline';letter-spacing:0px;word-spacing:0px;fill:#000000;fill-opacity:1;stroke:none;stroke-width:1px;stroke-linecap:butt;stroke-linejoin:miter;stroke-opacity:1"
       transform="translate(857.0149,531.92815)"><flowRegion
         id="flowRegion5013"><rect
           id="rect5015"
           width="577.83881"
           height="268.47961"
           x="76.234947"
           y="586.11365"
           style="font-style:normal;font-variant:normal;font-weight:normal;font-stretch:normal;font-family:'Source Code Pro for Powerline';-inkscape-font-specification:'Source Code Pro for Powerline'" /></flowRegion><flowPara
         id="flowPara5017" /></flowRoot>    <text
       xml:space="preserve"
       style="font-style:normal;font-weight:normal;font-size:40px;line-height:125%;font-family:sans-serif;letter-spacing:0px;word-spacing:0px;fill:#000000;fill-opacity:1;stroke:none;stroke-width:1px;stroke-linecap:butt;stroke-linejoin:miter;stroke-opacity:1"
       x="504.16714"
       y="1010.6428"
       id="text4295"
       sodipodi:linespacing="125%"><tspan
         sodipodi:role="line"
         id="tspan4297"
         x="504.16714"
         y="1010.6428" /></text>
    <g
       id="g13898"
       transform="matrix(-1.6768938,0,0,1.6768938,358.78137,-320.75002)"
       inkscape:export-xdpi="62.465069"
       inkscape:export-ydpi="62.465069">
      <g
         id="Layer1007-8"
         transform="translate(-320.32737,337.71993)">
        <path
           inkscape:connector-curvature="0"
           id="path13043-6"
           style="fill:#000000;fill-rule:evenodd"
           d="m 299.9134,186.6369 -9.6348,-15.3502 2e-4,-6e-4 c 0.0214,-0.0444 0.0427,-0.0886 0.0646,-0.1329 l 0.0244,-0.0489 c 0.0629,-0.1274 0.1274,-0.2544 0.193,-0.3814 l 0.001,-0.002 c 0.0363,-0.0697 0.0728,-0.1395 0.1099,-0.2091 l 0.003,-0.006 c 0.0373,-0.07 0.0751,-0.14 0.1131,-0.2099 l 0.002,-0.005 c 0.0385,-0.0704 0.0771,-0.1405 0.1164,-0.2105 l 0.002,-0.004 c 0.0393,-0.0705 0.0794,-0.1409 0.1197,-0.2112 l 0.001,-0.002 c 0.0407,-0.0707 0.0818,-0.1413 0.1231,-0.2119 l 6e-4,-0.001 c 0.0417,-0.0707 0.0839,-0.1417 0.1266,-0.2125 0.034,-0.0564 0.0681,-0.1127 0.1025,-0.1685 0.0344,-0.0561 0.0689,-0.1119 0.1037,-0.1675 0.0348,-0.0555 0.0697,-0.1109 0.1047,-0.1659 0.0352,-0.0552 0.0704,-0.1101 0.1059,-0.1647 0.0354,-0.0546 0.071,-0.109 0.107,-0.1632 0.0358,-0.0542 0.0716,-0.108 0.1078,-0.1618 0.0362,-0.0537 0.0726,-0.1071 0.109,-0.1603 0.0365,-0.0532 0.0732,-0.1064 0.1101,-0.1589 0.0368,-0.0528 0.0736,-0.1053 0.1108,-0.1577 0.037,-0.0522 0.0745,-0.1043 0.1119,-0.1561 0.0374,-0.0517 0.0751,-0.1032 0.1129,-0.1546 0.0378,-0.0513 0.0757,-0.1025 0.1137,-0.1532 0.0383,-0.0509 0.0765,-0.1014 0.1147,-0.1517 0.0385,-0.0504 0.077,-0.1004 0.1158,-0.1504 l 0,0 c 0.0387,-0.0499 0.0775,-0.0993 0.1164,-0.1489 l 0,0 c 0.0391,-0.0492 0.0781,-0.0983 0.1174,-0.1472 0.0393,-0.0489 0.0787,-0.0975 0.1184,-0.1458 0.0395,-0.0485 0.0792,-0.0966 0.119,-0.1444 0.0399,-0.0479 0.0798,-0.0956 0.1199,-0.1428 l 0,0 c 0.0401,-0.0475 0.0804,-0.0945 0.1207,-0.1413 l 0,0 c 0.0404,-0.0469 0.081,-0.0935 0.1216,-0.1399 0.0405,-0.0462 0.0812,-0.0925 0.1222,-0.1383 0.0409,-0.0458 0.082,-0.0914 0.1231,-0.1366 l 0,0 c 0.0411,-0.0454 0.0824,-0.0904 0.1237,-0.1352 l 0,0 c 0.0416,-0.0448 0.0831,-0.0894 0.1246,-0.1338 l 0,0 c 0.0415,-0.0441 0.0834,-0.0881 0.1252,-0.1319 l 0,-2e-4 c 0.0419,-0.0435 0.0838,-0.0871 0.1259,-0.1305 l 0,0 c 0.0422,-0.0431 0.0843,-0.0861 0.1266,-0.1288 l 0,0 c 0.0422,-0.0428 0.0847,-0.0851 0.1272,-0.1272 l 1e-4,-3e-4 c 0.0425,-0.0421 0.085,-0.084 0.1278,-0.1255 0.0427,-0.0418 0.0855,-0.0831 0.1284,-0.1244 0.043,-0.0411 0.0861,-0.0818 0.1293,-0.1225 l 0,0 c 0.0431,-0.0405 0.0863,-0.0808 0.1297,-0.1209 l 0,0 c 0.0433,-0.0401 0.0867,-0.0797 0.1302,-0.1192 l 0,0 c 0.0436,-0.0395 0.0872,-0.0787 0.1309,-0.1178 0.0436,-0.0389 0.0876,-0.0775 0.1314,-0.116 l 0,0 c 0.0439,-0.0384 0.0879,-0.0765 0.1319,-0.1143 l 0,0 c 0.0441,-0.0378 0.0881,-0.0755 0.1323,-0.1127 l 2e-4,-2e-4 c 0.0442,-0.0372 0.0886,-0.0743 0.133,-0.1111 l -3e-4,0 c 0.0444,-0.0366 0.089,-0.073 0.1336,-0.1092 l 0,-2e-4 c 0.0446,-0.0362 0.0892,-0.072 0.1338,-0.1075 l 0,0 c 0.0445,-0.0359 0.0896,-0.0711 0.1343,-0.1062 l 0,0 c 0.0448,-0.035 0.0898,-0.0698 0.1346,-0.1043 l 2e-4,0 c 0.0448,-0.0346 0.09,-0.0687 0.135,-0.1027 l 0,0 c 0.0452,-0.034 0.0904,-0.0675 0.1356,-0.1008 0.0452,-0.0334 0.0904,-0.0665 0.1358,-0.0992 l 2e-4,0 c 0.0452,-0.033 0.0906,-0.0653 0.1363,-0.0976 l 0,0 c 0.0454,-0.0323 0.0909,-0.064 0.1366,-0.0957 l 0,0 c 0.0456,-0.0317 0.0912,-0.063 0.1368,-0.0941 0.0458,-0.0311 0.0914,-0.0618 0.1372,-0.0922 0.0458,-0.0305 0.0918,-0.0606 0.1377,-0.0907 0.0458,-0.0298 0.0918,-0.0592 0.1378,-0.0887 0.092,-0.0585 0.1841,-0.1158 0.2764,-0.172 l 10e-5,0 c 0.0461,-0.0282 0.0923,-0.0561 0.1385,-0.0834 0.0462,-0.0277 0.0924,-0.0549 0.1389,-0.0816 0.0462,-0.027 0.0926,-0.0537 0.1388,-0.0798 l 0,0 c 0.0929,-0.0526 0.1857,-0.1041 0.2786,-0.1542 l 0,0 c 0.0465,-0.025 0.0929,-0.0499 0.1395,-0.0743 0.0464,-0.0246 0.0931,-0.0486 0.1395,-0.0726 0.0466,-0.0239 0.0933,-0.0474 0.1399,-0.0705 l 0,-2e-4 c 0.0466,-0.0232 0.093,-0.0461 0.1397,-0.0688 0.0466,-0.0227 0.0933,-0.045 0.1399,-0.0668 0.0108,0.0552 0.0211,0.1108 0.0309,0.1669 0.01,0.0558 0.0192,0.112 0.0282,0.1687 0.009,0.0566 0.0176,0.1135 0.0256,0.1707 0.008,0.0571 0.0159,0.1148 0.0231,0.1727 l 0,0 c 0.007,0.0578 0.0141,0.1159 0.0206,0.1745 0.006,0.0584 0.0123,0.1171 0.0178,0.1762 0.006,0.0589 0.0106,0.1184 0.0153,0.178 0.005,0.0597 0.009,0.1196 0.0129,0.1797 l 0,0 c 0.004,0.0602 0.007,0.1207 0.0103,0.1815 l 0,0 c 0.003,0.0607 0.005,0.1219 0.008,0.183 l -10e-5,2e-4 c 0.002,0.0612 0.004,0.1227 0.005,0.1847 l 0,0 c 0.0787,4.0159 0.1245,5.2527 -2.0617,8.6687 -0.002,0.002 1.9123,0.6504 3.1925,0.0204 4.5114,-2.2203 9.1894,-3.0149 13.0901,-2.5028 -1.4648,3.6652 -5.1594,7.5215 -10.2408,10.3344 3.4059,0.7492 6.3462,2.2165 8.4506,4.0779 -2.7626,1.8773 -7.1936,2.8251 -12.0976,2.3688 z" />
        <path
           inkscape:connector-curvature="0"
           id="path13045-3"
           style="fill:#000000;fill-rule:evenodd"
           d="m 396.1631,339.2629 -9.635,-15.3503 3e-4,-5e-4 c 0.0214,-0.0443 0.0428,-0.0886 0.0646,-0.1328 l 0.0245,-0.0491 c 0.063,-0.1273 0.1272,-0.2544 0.1931,-0.3813 l 10e-4,-0.002 c 0.0362,-0.0698 0.0729,-0.1394 0.1099,-0.209 l 0.003,-0.006 c 0.0372,-0.07 0.075,-0.1399 0.1131,-0.2098 l 0.002,-0.005 c 0.0383,-0.0703 0.0771,-0.1404 0.1164,-0.2105 l 0.002,-0.003 c 0.0394,-0.0704 0.0794,-0.1408 0.1197,-0.2112 l 0.001,-0.002 c 0.0406,-0.0707 0.0817,-0.1413 0.1231,-0.2119 l 7e-4,-0.001 c 0.0416,-0.0709 0.0838,-0.1418 0.1264,-0.2125 0.034,-0.0565 0.0682,-0.1127 0.1026,-0.1687 0.0344,-0.0561 0.0689,-0.1118 0.1037,-0.1674 0.0347,-0.0555 0.0696,-0.1109 0.1047,-0.166 0.0351,-0.0551 0.0704,-0.1099 0.1059,-0.1646 0.0354,-0.0546 0.0711,-0.109 0.1069,-0.1632 0.0358,-0.0541 0.0717,-0.108 0.1079,-0.1618 0.0361,-0.0537 0.0725,-0.1071 0.109,-0.1603 0.0365,-0.0533 0.0731,-0.1063 0.1099,-0.159 0.0368,-0.0528 0.0738,-0.1053 0.1109,-0.1576 0.0372,-0.0522 0.0745,-0.1043 0.1119,-0.1561 0.0375,-0.0518 0.0751,-0.1033 0.1129,-0.1546 0.0378,-0.0513 0.0757,-0.1024 0.1138,-0.1532 0.0381,-0.0508 0.0764,-0.1014 0.1148,-0.1518 0.0384,-0.0503 0.0769,-0.1004 0.1156,-0.1502 l 0,-10e-5 c 0.0387,-0.0498 0.0775,-0.0994 0.1165,-0.1487 l 0,-10e-5 c 0.0389,-0.0493 0.0781,-0.0984 0.1174,-0.1473 0.0393,-0.0488 0.0788,-0.0975 0.1183,-0.1458 0.0396,-0.0484 0.0792,-0.0965 0.119,-0.1444 0.0399,-0.0479 0.0799,-0.0955 0.12,-0.1428 l 0,0 c 0.0401,-0.0474 0.0803,-0.0945 0.1207,-0.1413 l 0,-10e-5 c 0.0403,-0.0468 0.0809,-0.0934 0.1215,-0.1398 0.0407,-0.0463 0.0814,-0.0924 0.1223,-0.1382 0.0409,-0.0458 0.0818,-0.0914 0.123,-0.1367 l 10e-5,-1e-4 c 0.0411,-0.0453 0.0824,-0.0903 0.1237,-0.1351 l 0,-1e-4 c 0.0414,-0.0448 0.0829,-0.0893 0.1245,-0.1336 l 0,0 c 0.0416,-0.0443 0.0834,-0.0883 0.1253,-0.132 l -1e-4,-10e-5 c 0.0419,-0.0437 0.0839,-0.0873 0.1259,-0.1305 l 1e-4,0 c 0.0421,-0.0433 0.0843,-0.0862 0.1266,-0.1289 l -1e-4,0 c 0.0423,-0.0427 0.0848,-0.0852 0.1273,-0.1273 l 0,-10e-5 c 0.0425,-0.0422 0.0851,-0.084 0.1279,-0.1257 0.0427,-0.0417 0.0855,-0.0831 0.1285,-0.1242 0.0429,-0.0411 0.0859,-0.0819 0.1291,-0.1225 l 0,0 c 0.0431,-0.0406 0.0864,-0.0809 0.1297,-0.1209 l 0,-10e-5 c 0.0433,-0.04 0.0868,-0.0797 0.1303,-0.1192 l 0,-10e-5 c 0.0435,-0.0395 0.0871,-0.0787 0.1308,-0.1176 0.0437,-0.039 0.0875,-0.0777 0.1314,-0.1161 l 0,0 c 0.0439,-0.0384 0.0879,-0.0765 0.1319,-0.1144 l 1e-4,0 c 0.044,-0.0378 0.0881,-0.0754 0.1323,-0.1127 l 10e-5,0 c 0.0442,-0.0374 0.0885,-0.0743 0.1329,-0.1111 l 0,0 c 0.0443,-0.0368 0.0888,-0.0732 0.1334,-0.1094 l 0,0 c 0.0445,-0.0362 0.0891,-0.0721 0.1338,-0.1077 l 0,0 c 0.0447,-0.0357 0.0895,-0.071 0.1343,-0.1061 l 0,0 c 0.0448,-0.0351 0.0898,-0.0698 0.1347,-0.1043 l 1e-4,0 c 0.0449,-0.0345 0.09,-0.0687 0.1351,-0.1026 l 0,-1e-4 c 0.0451,-0.0339 0.0903,-0.0675 0.1355,-0.1009 0.0453,-0.0334 0.0906,-0.0664 0.1359,-0.0992 l 10e-5,0 c 0.0453,-0.0328 0.0907,-0.0652 0.1362,-0.0975 l 0,0 c 0.0455,-0.0322 0.091,-0.0641 0.1366,-0.0958 l 10e-5,0 c 0.0456,-0.0316 0.0912,-0.0629 0.1369,-0.094 0.0457,-0.031 0.0914,-0.0618 0.1372,-0.0922 0.0458,-0.0305 0.0917,-0.0607 0.1376,-0.0905 0.0459,-0.0299 0.0919,-0.0595 0.1378,-0.0888 0.092,-0.0585 0.1842,-0.116 0.2765,-0.1721 l 0,-1e-4 c 0.0462,-0.0281 0.0923,-0.0558 0.1386,-0.0834 0.0462,-0.0275 0.0924,-0.0547 0.1387,-0.0816 0.0463,-0.0269 0.0927,-0.0534 0.139,-0.0797 l 1e-4,-1e-4 c 0.0927,-0.0526 0.1855,-0.104 0.2784,-0.1541 l 0,0 c 0.0465,-0.0251 0.093,-0.0499 0.1395,-0.0744 0.0465,-0.0245 0.0931,-0.0486 0.1396,-0.0725 0.0466,-0.0239 0.0932,-0.0474 0.1397,-0.0706 l 10e-5,-10e-5 c 0.0466,-0.0232 0.0932,-0.0461 0.1398,-0.0688 0.0466,-0.0226 0.0932,-0.0449 0.1399,-0.0669 0.0107,0.0552 0.021,0.1109 0.0308,0.1669 0.01,0.0559 0.0193,0.1122 0.0282,0.1688 0.009,0.0566 0.0176,0.1135 0.0257,0.1707 0.008,0.0572 0.0158,0.1147 0.0231,0.1726 l -10e-5,0 c 0.007,0.0579 0.0142,0.1161 0.0206,0.1745 0.006,0.0585 0.0124,0.1172 0.0179,0.1762 0.005,0.0591 0.0107,0.1185 0.0154,0.1781 0.005,0.0596 0.009,0.1195 0.0128,0.1798 l -10e-5,0 c 0.004,0.0602 0.007,0.1206 0.0103,0.1814 l -10e-5,0 c 0.003,0.0608 0.006,0.1219 0.008,0.1831 l 0,0 c 0.002,0.0614 0.004,0.1229 0.005,0.1847 l -10e-5,10e-5 c 10e-4,0.0618 0.002,0.1239 0.002,0.1863 l 0,0 c 4e-4,0.0624 4e-4,0.125 0,0.1878 l 0,10e-5 c -5e-4,0.0628 -0.001,0.126 -0.003,0.1893 l 0,0 c -10e-4,0.0634 -0.003,0.127 -0.005,0.1909 l 0,0 c -0.002,0.0638 -0.005,0.1279 -0.008,0.1922 l 0,1e-4 c -0.003,0.0643 -0.007,0.1289 -0.0104,0.1936 -0.004,0.0648 -0.008,0.1298 -0.0128,0.1951 l -1e-4,0 c -0.005,0.0652 -0.01,0.1306 -0.0154,0.1963 l 0,0 c -0.006,0.0657 -0.0116,0.1316 -0.018,0.1976 l 0,10e-5 c -0.007,0.066 -0.0133,0.1324 -0.0206,0.1989 l 0,0 c -0.007,0.0665 -0.015,0.1332 -0.0231,0.2 l -1e-4,10e-5 c -0.008,0.0668 -0.0166,0.134 -0.0256,0.2013 l 0,0 c -0.009,0.0673 -0.0184,0.1348 -0.0283,0.2024 l 0,0 c -0.01,0.0677 -0.0201,0.1355 -0.0308,0.2035 l 0,1e-4 c -0.0107,0.068 -0.0218,0.1362 -0.0333,0.2045 l 0,0 c -0.0116,0.0684 -0.0235,0.1369 -0.036,0.2056 l 0,10e-5 c -0.0124,0.0686 -0.0252,0.1375 -0.0384,0.2065 l 0,1e-4 c -0.0133,0.069 -0.027,0.1381 -0.0411,0.2075 -0.014,0.0694 -0.0285,0.1389 -0.0435,0.2085 l 0,0 c -0.015,0.0696 -0.0303,0.1394 -0.0461,0.2094 l 0,0 c -0.0158,0.0699 -0.0321,0.14 -0.0487,0.2102 l 0,0 c -0.0167,0.0702 -0.0337,0.1405 -0.0512,0.211 l 0,0 c -0.0175,0.0704 -0.0354,0.141 -0.0538,0.2118 -0.0183,0.0707 -0.0371,0.1415 -0.0563,0.2125 l 0,0 c -0.0192,0.0709 -0.0388,0.142 -0.0588,0.2132 l -10e-5,0 c -0.02,0.0712 -0.0404,0.1425 -0.0613,0.2138 l 0,10e-5 c -0.0209,0.0713 -0.0423,0.1429 -0.064,0.2144 l 0,10e-5 c -0.0217,0.0715 -0.0438,0.1433 -0.0664,0.215 -0.0226,0.0718 -0.0456,0.1436 -0.069,0.2156 l -1e-4,0 c -0.0234,0.072 -0.0472,0.144 -0.0715,0.2161 l 0,1e-4 c -0.0243,0.072 -0.049,0.1443 -0.0741,0.2165 -0.0251,0.0723 -0.0507,0.1447 -0.0766,0.2171 l -10e-5,0 c -0.0259,0.0724 -0.0523,0.1449 -0.0791,0.2174 l 0,0 c -0.0268,0.0726 -0.0541,0.1452 -0.0817,0.2178 -0.0277,0.0726 -0.0558,0.1453 -0.0843,0.2181 l 0,0 c -0.0285,0.0727 -0.0574,0.1456 -0.0868,0.2184 l 0,0 c -0.0293,0.0729 -0.0591,0.1458 -0.0893,0.2187 -0.0301,0.0729 -0.0608,0.1458 -0.0918,0.2188 l 0,0 c -0.031,0.073 -0.0625,0.146 -0.0944,0.2191 -0.0319,0.073 -0.0642,0.1461 -0.0969,0.2192 l 0,0 c -0.0327,0.0731 -0.0658,0.1462 -0.0994,0.2193 -0.0335,0.0731 -0.0675,0.1462 -0.102,0.2193 -0.0344,0.0731 -0.0692,0.1463 -0.1044,0.2194 l -10e-5,0 c -0.0352,0.0731 -0.0709,0.1463 -0.1069,0.2194 l -10e-5,0 c -0.036,0.0731 -0.0726,0.1462 -0.1095,0.2193 -0.0369,0.0731 -0.0743,0.1462 -0.112,0.2192 l 0,1e-4 c -0.0378,0.073 -0.076,0.1461 -0.1146,0.2191 l 0,0 c -0.0386,0.073 -0.0777,0.146 -0.1171,0.219 -0.0395,0.0729 -0.0794,0.1458 -0.1196,0.2187 l -1e-4,0 c -0.0403,0.0729 -0.0809,0.1458 -0.1221,0.2186 l 0,0 c -0.0411,0.0728 -0.0827,0.1456 -0.1246,0.2183 -0.042,0.0727 -0.0844,0.1453 -0.1272,0.2179 l 0,0 c -0.0428,0.0726 -0.086,0.1451 -0.1297,0.2176 l 0,10e-5 c -0.0315,0.0522 -0.0631,0.1042 -0.0948,0.1561 l -0.0192,0.0313 -0.0727,0.1179 -0.0286,0.046 c -0.0252,0.0405 -0.0505,0.0809 -0.076,0.1213 l -0.0177,0.028 c -0.0325,0.0515 -0.0651,0.1028 -0.0978,0.1538 l -0.005,0.008 -0.0143,0.0223 c 1.4569,-1.1721 3.1138,-2.2349 4.9395,-3.1334 4.5117,-2.2206 9.1893,-3.0149 13.0901,-2.5027 -1.4649,3.6651 -5.1595,7.5214 -10.241,10.3342 3.4061,0.7492 6.3463,2.2165 8.4507,4.0781 -2.7625,1.8772 -7.1936,2.8251 -12.0975,2.3687 z" />
        <path
           inkscape:connector-curvature="0"
           id="path13047-3"
           style="fill:#000000;fill-rule:evenodd"
           d="m 325.9285,227.8895 -13.2287,-22.3557 c 2.232,-8.0178 7.035,-15.62 13.4349,-18.9223 1.8498,2.7252 2.5017,6.1528 1.8299,10.0145 5.3235,-2.7445 10.8275,-4.6651 16.0402,-5.6624 -0.8021,4.5594 -3.4039,9.5846 -7.6309,14.4696 6.4403,-1.233 12.167,-0.9877 16.5946,0.5545 -3.7902,4.3756 -8.7387,8.492 -14.3929,11.8829 4.1713,1.4544 7.0344,4.0283 8.4218,7.3691 -5.9421,3.3541 -14.2112,2.7164 -21.0689,2.6498 z" />
        <path
           inkscape:connector-curvature="0"
           id="path13049-9"
           style="fill:#000000;fill-rule:evenodd"
           d="m 352.6232,270.2199 -13.2286,-22.3557 c 2.232,-8.0178 7.0349,-15.62 13.4348,-18.9223 1.8498,2.7253 2.5017,6.1529 1.8299,10.0145 5.3235,-2.7445 10.8275,-4.665 16.0402,-5.6624 -0.8021,4.5595 -3.4039,9.5846 -7.6309,14.4697 6.4403,-1.233 12.1671,-0.9878 16.5946,0.5545 -3.7902,4.3756 -8.7387,8.492 -14.3928,11.8828 4.1712,1.4545 7.0343,4.0284 8.4217,7.3691 -5.942,3.3542 -14.2112,2.7165 -21.0689,2.6498 z" />
        <path
           inkscape:connector-curvature="0"
           id="path13051-4"
           style="fill:#000000;fill-rule:evenodd"
           d="m 377.7873,310.1236 -13.2287,-22.3557 c 2.232,-8.0178 7.035,-15.62 13.4349,-18.9223 1.8498,2.7253 2.5017,6.1529 1.8299,10.0145 5.3235,-2.7445 10.8275,-4.6651 16.0402,-5.6624 -0.8021,4.5595 -3.4039,9.5846 -7.6309,14.4696 6.4403,-1.233 12.167,-0.9877 16.5946,0.5545 -3.7902,4.3757 -8.7387,8.492 -14.3929,11.8829 4.1713,1.4544 7.0344,4.0284 8.4218,7.3691 -5.9421,3.3541 -14.2112,2.7164 -21.0689,2.6498 z" />
        <path
           inkscape:connector-curvature="0"
           id="path13053-5"
           style="fill:#000000;fill-rule:evenodd"
           d="m 298.9902,399.8093 c 10.7528,7.3957 21.1465,13.8009 33.6862,16.9107 4.4583,2.6797 7.6274,5.8432 9.1996,9.6054 -7.4083,1.958 -13.3351,6.8805 -17.8578,14.6111 -10.9345,-0.343 -21.6245,2.236 -32.1981,6.2231 0.2853,-2.7143 1.5601,-5.2523 4.5996,-7.5761 -5.5752,-0.947 -10.7041,0.2252 -15.5578,2.7057 2.2733,-9.0583 8.8192,-16.3301 21.9163,-20.6988 -3.3706,-6.877 -4.3856,-14.1825 -3.788,-21.7811 z" />
        <path
           inkscape:connector-curvature="0"
           id="path13055-6"
           style="fill:#000000;fill-rule:evenodd"
           d="m 252.6609,325.6071 c -10.031,11.6646 -20.2529,25.5743 -28.8925,44.6427 0.4669,15.0035 9.8735,34.1964 18.3674,51.3646 -19.399,4.0868 -31.74,14.7615 -40.3154,28.9512 5.8728,-2.4077 11.746,-3.6829 17.619,-2.1203 -1.9976,1.0911 -3.2502,2.9971 -4.4677,6.6878 20.7082,-4.7461 38.0316,-4.6205 59.1012,-2.8628 5.0518,-18.824 2.1405,-38.7094 1.375,-58.21 5.3412,-2.0349 14.8153,-4.8265 24.2101,-9.5514 -1.2485,3.0523 -3.0172,4.7718 -5.2977,6.7663 101.2366,68.94 210.0037,30.0943 205.3554,-59.883 -2.3676,-72.6708 -137.1072,-84.3619 -91.8445,-174.7116 -97.7625,81.9307 89.9731,138.2986 46.6359,197.5834 -9.8132,13.4243 -41.0423,26.8121 -65.6144,-7.737 C 341.351,279.6824 277.2201,148.4341 257.5669,138.1462 c -32.873,-17.2083 -46.8097,6.3078 -57.4966,11.9053 -19.1266,5.186 -7.5968,25.1008 0.0756,25.8586 1.8766,0.9952 4.0233,1.2451 6.035,1.4734 -1.2701,-1.3655 -2.0997,-2.8509 -2.378,-4.487 l 2e-4,-2e-4 c 1.7759,0.5989 3.6913,0.8484 5.828,0.5453 -0.6103,-1.1012 -0.9163,-2.2674 -0.895,-3.5044 l 4e-4,-2e-4 c 1.4353,0.611 2.9304,0.9251 4.5008,0.8595 -0.3217,-0.9994 -0.1137,-1.8884 0.6236,-2.6671 3.1863,-0.7371 6.5187,-0.8013 10.021,-0.0846 -1.2863,3.8134 -3.487,6.5978 -6.1078,8.6443 -0.9212,0.4369 -1.8599,0.6015 -2.8263,0.3176 -0.4087,0.4393 -0.5382,0.9478 -0.4058,1.5221 -0.993,0.2442 -2.0731,0.1618 -3.2469,-0.2706 -0.298,0.6983 -0.4037,1.3767 -0.2511,2.0295 -1.2563,-0.0558 -2.4554,-0.4532 -3.5764,-1.3212 -0.1837,0.7054 -0.0875,1.4953 0.1798,2.3361 3.5632,14.5623 31.7825,-5.1209 26.8214,20.1431 6.719,-1.2366 12.3533,-0.0115 17.4528,0.524 l -1.1728,0.2108 c -13.3043,2.1676 -26.096,3.0829 -38.6785,9.5805 -22.2358,0.4414 -37.5606,-0.7118 -45.7268,-3.5175 -4.3678,-10.2218 -11.0553,-15.0309 -19.752,-15.1522 -12.4968,-3.3456 -20.243,-2.5167 -20.8341,4.5999 -3.3557,3.3113 -5.3934,8.459 -3.1115,13.9346 -4.336,4.0431 -1.4617,10.8847 6.088,17.1813 9.0153,2.6701 17.6811,2.0199 25.9749,-2.1647 17.7225,7.2314 34.0922,12.7056 52.8968,16.9107 14.656,3.4254 29.2118,6.0479 43.4598,6.2086 -5.0205,2.2369 -11.8268,3.7083 -18.5173,2.7288 -6.907,34.3595 -4.9125,54.0314 7.5027,80.8639 3.9954,-3.6621 8.6482,-5.2065 12.6101,-7.7473 z M 228.4715,144.3155 c 0.2389,0.1636 0.4663,0.3522 0.6786,0.5641 1.8759,1.8763 1.8755,4.9168 0,6.7924 -1.8755,1.8757 -4.9164,1.8757 -6.7921,0 -0.2123,-0.2123 -0.4003,-0.4396 -0.5645,-0.6785 l 6.678,-6.678 z" />
        <g
           id="Layer1008-3" />
      </g>
      <g
         transform="matrix(0.21053715,0,0,0.21053715,-274.94119,478.3204)"
         id="g13880">
        <path
           sodipodi:nodetypes="sccscccscsscsssscssssscssscsscscsccsccccssssccsss"
           inkscape:connector-curvature="0"
           d="m 439.74307,198.33663 -63.56035,-10.51939 0.98523,-6.96325 c 15.32593,-8.31155 26.67025,-23.51686 29.29467,-42.06553 3.88805,-27.47981 -12.63829,-53.227222 -38.00477,-61.852952 -3.6185,-29.045812 -26.26805,-52.98069 -56.42419,-57.248269 -16.6902,-2.36063 -33.62101,1.82666 -47.2523,11.352279 -4.14083,-1.732901 -8.50521,-2.940689 -12.97448,-3.573038 -21.24814,-3.006361 -41.60766,7.262673 -52.306,24.658075 -1.0923,-0.220791 -2.19501,-0.409508 -3.30472,-0.566526 -31.072,-4.396317 -59.92801,17.306249 -64.32433,48.378233 -2.42065,17.108518 3.08234,33.534568 13.69338,45.586328 l -39.71483,274.99543 c -1.95798,13.55759 7.608,26.23041 21.17117,28.14944 l 182.63755,25.84106 c 13.56317,1.91903 26.88518,-7.53138 28.14945,-21.17117 l 0.82392,-8.889 63.56035,10.51938 c 25.2908,4.18569 48.76718,-14.16466 52.54564,-39.51951 l 24.52423,-164.56676 c 3.77846,-25.35486 -14.22882,-48.35914 -39.51962,-52.54483 z m -93.1852,-42.40632 -144.29237,-20.41568 -7.10053,50.18455 c -1.22038,8.62536 -9.20263,14.6288 -17.82798,13.40841 -8.62536,-1.22038 -14.62879,-9.20263 -13.40841,-17.82798 l 7.67274,-54.22885 c -6.26504,-5.45774 -9.74127,-13.87309 -8.49309,-22.69491 1.95939,-13.848416 14.81994,-23.520811 28.66834,-21.561431 3.11707,0.441034 6.08683,1.443115 8.8286,2.978061 4.37872,2.451588 9.66308,2.674386 14.23226,0.597527 4.5692,-2.076849 7.87726,-6.203592 8.90996,-11.114264 2.27844,-10.835095 12.66196,-18.106118 23.63991,-16.552871 3.58068,0.506626 6.85148,1.85818 9.71982,4.015571 6.34679,4.773387 15.25241,4.083988 20.78936,-1.60891 7.81831,-8.038948 18.65006,-11.751822 29.7176,-10.185903 18.31191,2.590925 31.33746,19.029907 29.65375,37.424908 -0.38684,4.221444 0.94234,8.42157 3.68827,11.651642 2.74498,3.23079 6.67459,5.22392 10.90378,5.52045 0.73387,0.0518 1.30761,0.10954 1.80492,0.17992 13.8484,1.95938 23.52081,14.81993 21.56142,28.66833 -1.95939,13.84841 -14.81993,23.52081 -28.66835,21.56143 z m 65.43594,253.47088 c -0.26076,1.74982 -2.00786,3.1117 -3.75326,2.82283 l -63.56035,-10.5194 25.45467,-171.14284 63.56035,10.51939 c 1.74541,0.28887 3.08359,2.00344 2.82283,3.75326 z"
           id="path13842" />
        <g
           id="g13844" />
        <g
           id="g13846" />
        <g
           id="g13848" />
        <g
           id="g13850" />
        <g
           id="g13852" />
        <g
           id="g13854" />
        <g
           id="g13856" />
        <g
           id="g13858" />
        <g
           id="g13860" />
        <g
           id="g13862" />
        <g
           id="g13864" />
        <g
           id="g13866" />
        <g
           id="g13868" />
        <g
           id="g13870" />
        <g
           id="g13872" />
      </g>
    </g>
    <text
       xml:space="preserve"
       style="font-style:normal;font-variant:normal;font-weight:normal;font-stretch:normal;font-size:80.94033813px;line-height:94.99999881%;font-family:bitbold;-inkscape-font-specification:bitbold;text-align:end;letter-spacing:0px;word-spacing:0px;text-anchor:end;fill:#000000;fill-opacity:1;stroke:none;stroke-width:1px;stroke-linecap:butt;stroke-linejoin:miter;stroke-opacity:1"
       x="1658.5029"
       y="560.03461"
       id="text4948"
       sodipodi:linespacing="94.999999%"><tspan
         sodipodi:role="line"
         id="tspan4950"
         x="1658.5029"
         y="560.03461"
         style="font-style:normal;font-variant:normal;font-weight:normal;font-stretch:normal;font-size:121.4105072px;line-height:94.99999881%;font-family:bitbold;-inkscape-font-specification:bitbold;text-align:end;text-anchor:end">3ยบ HACKER</tspan><tspan
         sodipodi:role="line"
         x="1658.5029"
         y="675.65204"
         style="font-style:normal;font-variant:normal;font-weight:normal;font-stretch:normal;font-size:121.4105072px;line-height:94.99999881%;font-family:bitbold;-inkscape-font-specification:bitbold;text-align:end;text-anchor:end"
         id="tspan4273">BAR</tspan></text>
    <text
       xml:space="preserve"
       style="font-style:normal;font-variant:normal;font-weight:normal;font-stretch:normal;font-size:45px;line-height:125%;font-family:bitbold;-inkscape-font-specification:bitbold;letter-spacing:0px;word-spacing:0px;fill:#000000;fill-opacity:1;stroke:none;stroke-width:1px;stroke-linecap:butt;stroke-linejoin:miter;stroke-opacity:1"
       x="1302.1995"
       y="817.12268"
       id="text5045"
       sodipodi:linespacing="125%"><tspan
         sodipodi:role="line"
         id="tspan5047"
         x="1302.1995"
         y="817.12268"
         style="font-style:normal;font-variant:normal;font-weight:normal;font-stretch:normal;font-size:45px;font-family:bitbold;-inkscape-font-specification:bitbold">17/03 - 20h</tspan></text>
    <text
       xml:space="preserve"
       style="font-style:normal;font-variant:normal;font-weight:normal;font-stretch:normal;font-size:37.5px;line-height:125%;font-family:bitbold;-inkscape-font-specification:bitbold;letter-spacing:0px;word-spacing:0px;fill:#000000;fill-opacity:1;stroke:none;stroke-width:1px;stroke-linecap:butt;stroke-linejoin:miter;stroke-opacity:1"
       x="1275.4025"
       y="870.70435"
       id="text4179"
       sodipodi:linespacing="125%"><tspan
         sodipodi:role="line"
         id="tspan4181"
         x="1275.4025"
         y="870.70435"
         style="font-style:normal;font-variant:normal;font-weight:normal;font-stretch:normal;font-size:30px;font-family:bitbold;-inkscape-font-specification:bitbold">Trem BAo do CAASO</tspan></text>
    <text
       xml:space="preserve"
       style="font-style:normal;font-variant:normal;font-weight:normal;font-stretch:normal;font-size:22.5px;line-height:125%;font-family:bitbold;-inkscape-font-specification:bitbold;letter-spacing:0px;word-spacing:0px;fill:#000000;fill-opacity:1;stroke:none;stroke-width:1px;stroke-linecap:butt;stroke-linejoin:miter;stroke-opacity:1"
       x="1468.7587"
       y="1005.8399"
       id="text4299"
       sodipodi:linespacing="125%"><tspan
         sodipodi:role="line"
         id="tspan4301"
         x="1468.7587"
         y="1005.8399"
         style="font-style:normal;font-variant:normal;font-weight:normal;font-stretch:normal;font-size:22.5px;font-family:bitbold;-inkscape-font-specification:bitbold">godzillahc</tspan></text>
    <text
       xml:space="preserve"
       style="font-style:normal;font-weight:normal;font-size:40px;line-height:125%;font-family:sans-serif;letter-spacing:0px;word-spacing:0px;fill:#000000;fill-opacity:1;stroke:none;stroke-width:1px;stroke-linecap:butt;stroke-linejoin:miter;stroke-opacity:1"
       x="1551"
       y="1165.3621"
       id="text4263"
       sodipodi:linespacing="125%"><tspan
         sodipodi:role="line"
         id="tspan4265"
         x="1551"
         y="1165.3621"></tspan></text>
  </g>
</svg>
